<svg width="508" height="508" viewBox="0 0 508 508" fill="" xmlns="http://www.w3.org/2000/svg">
<path d="M480.1 156.1L316.3 321.7L186.3 191.7L302.1 76L288.1 62.91C279.6 53.54 264.4 53.54 255 62.91L168.1 148.1C159.6 158.3 144.4 158.3 135 148.1C125.7 139.6 125.7 124.4 135 115L221.1 28.97C249.2 0.852993 294.8 0.852993 322.9 28.97L336 42.06L351 27.03C386.9 -8.84901 445.1 -8.84901 480.1 27.03C516.9 62.91 516.9 121.1 480.1 156.1ZM229.5 408.5C181.5 456.5 120.3 489.2 53.7 502.5L28.71 507.5C20.84 509.1 12.7 506.6 7.02999 500.1C1.35599 495.3 -1.10701 487.2 0.466191 479.3L5.46499 454.3C18.78 387.7 51.52 326.5 99.54 278.5L163.7 214.3L293.7 344.3L229.5 408.5Z" fill="cc9a9a" fill-opacity="0.1"/>
</svg>
